<svg version="1.2" xmlns="http://www.w3.org/2000/svg" viewBox="0 0 500 500" width="500" height="500">
	<title>icon-svg</title>
	<style>
		.s0 { fill: #ffffff } 
		.s1 { fill: #f89927 } 
		.s2 { fill: none;stroke: #ffffff;stroke-width: 7 } 
		.s3 { fill: none;stroke: #ffffff;stroke-width: 10 } 
	</style>
	<path id="Shape 1" class="s0" d="m250 500c-138.3 0-250-111.8-250-250 0-138.3 111.8-250 250-250 138.3 0 250 111.8 250 250 0 138.3-111.8 250-250 250z"/>
	<path id="Layer" class="s1" d="m250.5 437.7c-104 0-188.1-84.1-188.1-188.1 0-104 84.1-188 188.1-188 104 0 188 84 188 188 0 104-84 188.1-188 188.1z"/>
	<path id="Smart Beehive" class="s1" aria-label="Smart Beehive"  d="m91 106.5c0 0-3.1 1.9-3.1 1.9-2.6 1.5-4.9 2.4-6.8 2.7-1.9 0.2-3.6-0.3-5.2-1.5-1.5-1.2-2.5-2.9-2.9-5-0.3-2.3 0.1-4.8 1.1-7.6 1.1-2.8 2.8-5.6 5.2-8.3 1.6-1.8 3.3-3.4 5.1-4.7 1.9-1.3 3.6-2.3 5.3-2.9 0 0 2.6 4.6 2.6 4.6-1.3 0.6-2.7 1.5-4.3 2.7-1.6 1.1-2.9 2.4-4.1 3.6-1.9 2.2-3.1 4.1-3.5 5.6-0.4 1.6-0.1 2.8 1 3.7 0.6 0.5 1.3 0.7 2.2 0.6 0.8-0.2 2-0.7 3.4-1.6 0 0 4.6-2.6 4.6-2.6 2.5-1.4 4.7-2.1 6.6-2.1 1.9 0.1 3.5 0.8 4.9 2.1 1.6 1.6 2.5 3.4 2.7 5.7 0.3 2.1-0.1 4.5-1.1 7.1-0.5 1.3-1.2 2.6-2 3.8-0.8 1.3-1.7 2.6-2.8 4-1.7 1.9-3.3 3.6-4.9 5-1.6 1.4-3.3 2.6-4.9 3.4 0 0-3.4-4.3-3.4-4.3 1.7-1.1 3.3-2.4 4.7-3.7 1.5-1.3 2.9-2.7 4.1-4.2 1.6-2 2.7-3.8 3.1-5.4 0.4-1.6 0.2-2.8-0.8-3.7-0.7-0.7-1.5-0.9-2.4-0.8-0.9 0.1-2.4 0.8-4.4 1.9zm57-31.1c0 0-6.7 4.3-6.7 4.3 0 0-1.2-3.2-2.3-6.4-1.2-3.1-2.3-6.3-2.3-6.3-0.7-2.1-1.3-3.5-1.8-4.3-0.5-0.7-1-1-1.5-1.1-0.6-0.1-1.3 0.1-2.1 0.6-0.9 0.6-1.7 1.6-2.5 2.8-0.7 1.2-1.4 2.8-2 4.7 0.4 0.8 0.9 1.8 1.4 3.2 0 0 1.3 3.1 2.5 6.2 1.4 3.1 2.7 6.2 2.7 6.2 0 0-6.4 4.9-6.4 4.9 0 0-1.4-3-2.9-6.1-1.4-3.1-2.8-6.1-2.8-6.1-0.9-2-1.6-3.4-2.2-4.1-0.5-0.7-1-1-1.6-1-0.6-0.1-1.2 0.2-2 0.8-0.9 0.7-1.6 1.8-2.3 3.4-0.6 1.5-1 3.2-1.2 5.1 0 0 0.5 0.9 1.2 2.3 0.7 1.4 1.6 3.2 2.5 5 0.9 1.8 1.9 3.6 2.6 4.9 0.7 1.3 1.2 2.2 1.2 2.2 0 0-6 5.6-6 5.6 0 0-0.8-1.3-2-3.4-0.6-1-1.3-2.2-2-3.5-0.8-1.2-1.5-2.6-2.3-4-0.8-1.4-1.6-2.8-2.3-4.1-0.7-1.3-1.4-2.5-1.9-3.5-1.1-2.1-1.9-3.5-1.9-3.5 0 0 5.6-4.9 5.6-4.9 0 0 2.7 3 2.7 3 0.2-2.1 0.8-4.2 1.8-6.1 1-1.9 2.2-3.4 3.7-4.6 1.8-1.4 3.5-2.2 5.1-2.4 1.7-0.2 3.1 0.2 4.3 1.2 0.5-2.2 1.4-4.1 2.6-5.9 1.2-1.9 2.7-3.3 4.3-4.4 2.4-1.5 4.5-2.1 6.3-1.9 1.8 0.2 3.3 1.3 4.4 3.1 0.6 1.1 1.3 2.9 2 5.3 0 0 1 3.2 2 6.4 1.1 3.2 2.1 6.4 2.1 6.4zm28-14.1c0 0-5.9 2.5-5.9 2.5 0 0-1.7-3.9-1.7-3.9-0.6 2-1.5 3.8-2.7 5.3-1.2 1.5-2.5 2.6-4 3.4-2.1 1.1-4 1.3-5.9 0.6-1.8-0.6-3.4-2.1-4.7-4.4-0.7-1.3-1.3-2.7-1.6-4.1-0.3-1.5-0.4-3-0.3-4.6 0.1-1.6 0.4-3.1 0.9-4.6 0.6-1.6 1.3-3 2.3-4.5 1-1.4 2.2-2.7 3.5-3.8 1.4-1.1 2.9-2.1 4.6-2.8 1.6-0.7 3.6-1.3 5.9-1.9 2.2-0.5 4.3-0.8 6.1-0.9 0 0 0.2 1.4 0.5 3.7 0.1 1.1 0.3 2.4 0.5 3.8 0.2 1.4 0.4 2.9 0.6 4.4 0.2 1.4 0.4 2.9 0.6 4.3 0.3 1.4 0.5 2.7 0.6 3.8 0.4 2.2 0.7 3.7 0.7 3.7zm-13.7 1c0.9-0.4 1.8-1.2 2.5-2.5 0.9-1.2 1.6-2.7 2.2-4.6 0 0-0.5-2.7-1-5.5-0.5-2.7-1-5.5-1-5.5-1.1 0.4-2 0.7-2.6 0.9-1.6 0.7-2.9 1.9-3.9 3.5-1 1.6-1.6 3.5-1.7 5.6-0.1 2.1 0.3 4.1 1.2 5.9 1.2 2.3 2.6 3.1 4.3 2.2zm28.2-6.3c0 0-7.3 2.5-7.3 2.5 0 0-0.2-1.6-0.5-3.9-0.2-1.2-0.3-2.5-0.5-4-0.2-1.5-0.4-3-0.5-4.6-0.2-1.6-0.3-3.1-0.5-4.6-0.1-1.5-0.3-2.8-0.4-4-0.2-2.4-0.3-4-0.3-4 0 0 6.7-2.1 6.7-2.1 0 0 1.4 4 1.4 4 0.8-1.6 2-3.1 3.4-4.3 1.4-1.2 3-2.1 4.7-2.5 1-0.3 1.9-0.4 2.8-0.4 0 0 0 6.5 0 6.5-1.3 0.1-2.4 0.3-3.5 0.6-2.8 0.8-5 2.3-6.6 4.7 0 0 0 1 0.1 2.5 0.1 1.5 0.3 3.6 0.4 5.6 0.1 2 0.3 4 0.4 5.5 0.1 1.5 0.2 2.5 0.2 2.5zm31.1-13c0 0 2.2 3.4 2.2 3.4-0.9 0.9-2.1 1.6-3.5 2.3-1.4 0.7-2.8 1.1-4.3 1.4-2.7 0.5-4.8 0.4-6.3-0.4-1.6-0.7-2.6-2-3.1-4-0.2-1-0.3-2.7-0.2-5 0 0 0.1-2.3 0.1-4.5 0.1-2.3 0.1-4.5 0.1-4.5 0 0-4.6 1-4.6 1 0 0 0.1-4.3 0.1-4.3 0 0 5-1.9 5-1.9 0 0 1.6-7.1 1.6-7.1 0 0 7.3-1.3 7.3-1.3 0 0-0.7 6.8-0.7 6.8 0 0 8.6-1.2 8.6-1.2 0 0-0.7 5.2-0.7 5.2 0 0-8.2 1.2-8.2 1.2 0 0-0.2 2.1-0.3 4.2-0.1 2.1-0.2 4.2-0.2 4.2-0.1 2.5-0.1 4 0 4.4 0.1 0.7 0.4 1.2 0.9 1.4 0.6 0.3 1.3 0.3 2.3 0.1 1.3-0.2 2.6-0.6 3.9-1.4zm34.9 3.7c0 0-3.5-0.1-7.1-0.1-3.6 0.1-7.1 0.2-7.1 0.2 0 0 0.3-2.1 0.9-5.2 0.3-1.6 0.7-3.4 1-5.4 0.4-2 0.9-4.1 1.3-6.2 0.5-2 0.9-4.1 1.3-6.1 0.5-2 0.9-3.8 1.3-5.3 0.7-3.2 1.3-5.3 1.3-5.3 0 0 3.7 0.1 7.4 0.1 3.8 0.1 7.5 0.3 7.5 0.3 1.9 0.1 3.6 0.4 5.1 0.9 1.5 0.5 2.8 1.2 3.8 2 2.1 1.7 3 3.8 2.7 6.2-0.2 1.9-1 3.5-2.5 4.8-1.4 1.3-3.2 2.1-5.6 2.6 1.9 0.8 3.2 1.8 4.1 3.1 0.9 1.3 1.3 2.7 1.1 4.2-0.2 1.6-0.7 2.9-1.5 4.1-0.9 1.2-2 2.2-3.5 3-1.5 0.8-3.2 1.3-5.1 1.7-1.9 0.3-4 0.5-6.4 0.4zm3.2-14.5c0 0-6.5-0.1-6.5-0.1 0 0-0.6 2.3-1.2 4.7-0.5 2.4-1.1 4.7-1.1 4.7 0 0 6.7 0.1 6.7 0.1 2.2 0.1 4-0.3 5.2-1.2 1.2-0.9 1.9-2.2 2-4 0.1-1.2-0.3-2.2-1.2-3-0.9-0.7-2.2-1.1-3.9-1.2zm2.8-13.5c0 0-5.8-0.2-5.8-0.2 0 0-0.6 2.2-1.2 4.4-0.5 2.2-1.1 4.4-1.1 4.4 0 0 5.9 0.2 5.9 0.2 2.1 0.1 3.8-0.3 5.1-1.2 1.3-0.9 2-2.1 2.1-3.7 0.1-1.2-0.3-2.1-1.2-2.7-0.9-0.7-2.1-1.1-3.8-1.2zm34.5 27c0 0 1 4.2 1 4.2-1.9 0.6-4 0.9-6.1 1-2.1 0.1-4.2-0.1-6.5-0.5-3.1-0.5-5.4-1.6-6.8-3.4-0.8-0.9-1.3-1.9-1.5-3.1-0.3-1.1-0.4-2.4-0.2-3.8 0.2-1.5 0.6-2.9 1.1-4.2 0.6-1.4 1.4-2.6 2.3-3.8 1-1.2 2.1-2.3 3.4-3.2 1.3-0.8 2.7-1.6 4.3-2.1 1.6-0.6 3.2-0.9 5-1 1.7-0.1 3.5 0.1 5.4 0.5 2.6 0.6 4.6 1.6 5.8 3 1.3 1.4 1.6 2.9 1.2 4.7-0.3 1.3-1 2.4-1.9 3.3-1 0.9-2.3 1.7-3.8 2.3-1.6 0.6-3.4 1.1-5.4 1.3-2 0.3-4.3 0.4-6.8 0.4 0 0-3.3 0-3.3 0-0.1 1.4 0.2 2.4 0.8 3.1 0.6 0.7 1.8 1.2 3.5 1.5 1.3 0.2 2.6 0.3 4 0.3 1.4 0 2.9-0.2 4.5-0.5zm-1.7-15c-1.2-0.3-2.5-0.2-3.9 0.3-1.3 0.4-2.6 1.1-3.7 2.2-1.1 1-1.9 2.3-2.5 3.8 0 0 3.3 0 3.3 0 2.5 0 4.6-0.3 6.3-1 1.7-0.7 2.7-1.6 2.9-2.9 0.2-0.5 0-1-0.4-1.4-0.5-0.5-1.1-0.9-2-1zm28.4 23.1c0 0 0.5 4.4 0.5 4.4-2 0.3-4.1 0.3-6.2 0.1-2.1-0.2-4.2-0.7-6.4-1.4-3-1-5.1-2.4-6.4-4.3-0.6-1-0.9-2.1-1-3.3-0.2-1.2 0-2.5 0.3-3.8 0.4-1.5 1-2.8 1.7-4 0.8-1.3 1.7-2.4 2.8-3.5 1.1-1 2.4-1.9 3.8-2.6 1.4-0.7 2.9-1.3 4.5-1.6 1.7-0.3 3.4-0.4 5.1-0.3 1.8 0.2 3.6 0.6 5.4 1.3 2.5 0.9 4.3 2.2 5.4 3.7 1 1.6 1.2 3.2 0.5 4.9-0.5 1.2-1.3 2.2-2.4 3-1 0.8-2.4 1.4-4 1.8-1.7 0.4-3.5 0.5-5.6 0.5-2 0-4.3-0.2-6.8-0.6 0 0-3.3-0.4-3.3-0.4-0.3 1.3-0.1 2.4 0.4 3.2 0.5 0.7 1.6 1.4 3.2 1.9 1.3 0.4 2.6 0.7 4 0.9 1.4 0.2 2.9 0.2 4.5 0.1zm0.4-15.1c-1.1-0.4-2.5-0.5-3.9-0.3-1.4 0.3-2.7 0.8-4 1.7-1.2 0.9-2.2 2.1-3.1 3.5 0 0 3.4 0.4 3.4 0.4 2.5 0.3 4.6 0.3 6.4-0.1 1.7-0.4 2.9-1.2 3.3-2.4 0.2-0.6 0.1-1.1-0.3-1.6-0.3-0.5-0.9-0.9-1.8-1.2zm26.8 34.8c0 0-6.9-3.8-6.9-3.8 0 0 2.2-2.6 4.4-5.1 2.2-2.5 4.5-5 4.5-5 1.5-1.7 2.5-2.9 2.9-3.7 0.4-0.7 0.5-1.3 0.2-1.9-0.2-0.5-0.7-1-1.6-1.5-1-0.5-2.3-0.8-4-0.8-1.7 0-3.5 0.3-5.4 0.9 0 0-0.7 0.8-1.6 1.9-1 1.2-2.3 2.8-3.5 4.3-1.3 1.6-2.5 3.2-3.4 4.4-1 1.2-1.6 2-1.6 2 0 0-7.1-3.2-7.1-3.2 0 0 1.3-1.9 3.3-4.6 1-1.4 2.2-3 3.5-4.7 1.3-1.7 2.6-3.6 4-5.4 1.4-1.8 2.9-3.6 4.2-5.3 1.3-1.6 2.6-3.2 3.7-4.5 2.2-2.7 3.6-4.5 3.6-4.5 0 0 8.3 4.1 8.3 4.1 0 0-0.6 0.7-1.5 1.8-1 1-2.2 2.4-3.5 3.9-1.2 1.4-2.5 2.8-3.4 3.9-0.9 1-1.5 1.8-1.5 1.8 1.9-0.6 3.9-0.8 5.9-0.6 2 0.2 3.8 0.7 5.4 1.6 2.4 1.4 4 3 4.7 4.7 0.7 1.8 0.5 3.5-0.6 5.3-0.7 1.1-1.9 2.5-3.7 4.4 0 0-2.4 2.4-4.7 4.8-2.3 2.4-4.6 4.8-4.6 4.8zm31.9-12.9c-1.2-0.9-2.1-1.8-2.5-2.8-0.3-0.9-0.2-1.7 0.3-2.6 0.7-1 1.8-1.5 3.3-1.5 1.5 0 3 0.6 4.4 1.6 1.3 0.9 2.1 1.9 2.5 2.8 0.4 1 0.3 1.9-0.3 2.7-0.8 0.9-1.9 1.4-3.4 1.4-1.5-0.1-2.9-0.6-4.3-1.6zm-25.4 17c0 0 1.1-1.2 2.8-2.8 0.9-0.8 1.9-1.8 2.9-2.8 1.1-1 2.2-2.1 3.4-3.2 1.2-1.1 2.3-2.1 3.4-3.1 1.1-1 2.1-2 3-2.8 1.8-1.5 2.9-2.6 2.9-2.6 0 0 7.4 5.2 7.4 5.2 0 0-1.3 1-3.1 2.5-0.9 0.8-2 1.7-3.1 2.6-1.1 1-2.3 2-3.5 3-1.2 1.1-2.4 2.1-3.5 3.1-1.1 0.9-2.2 1.9-3 2.6-1.8 1.6-3 2.7-3 2.7 0 0-6.6-4.4-6.6-4.4zm24.2 18.2c0 0-5.8-4.9-5.8-4.9 0 0 0.7-1.4 1.8-3.5 0.5-1 1.2-2.3 1.8-3.6 0.7-1.3 1.4-2.7 2.1-4.1 0.6-1.4 1.3-2.9 2-4.2 0.6-1.3 1.2-2.6 1.7-3.6 1-2.2 1.6-3.6 1.6-3.6 0 0 7.4 6 7.4 6 0 0-0.6 1-1.5 2.4-1 1.5-2.2 3.4-3.5 5.4-1.3 1.9-2.5 3.8-3.5 5.3-1 1.4-1.6 2.4-1.6 2.4 1.6-0.5 3.3-1 4.9-1.5 1.7-0.5 3.3-1 5-1.6 1.7-0.5 3.4-1.1 5-1.7 1.7-0.5 3.4-1.2 5.1-1.8 0 0 6.7 6.7 6.7 6.7-1.8 0.5-3.9 1.1-6.1 1.6-2.2 0.5-4.7 1-7.3 1.4-1.3 0.3-2.6 0.6-3.9 0.8-1.4 0.2-2.7 0.5-4 0.7-1.3 0.3-2.6 0.5-3.9 0.7-1.4 0.3-2.7 0.5-4 0.7zm30.3 23.6c0 0-1.7 4.1-1.7 4.1-2-0.9-3.9-2.1-5.7-3.5-1.8-1.4-3.5-3.1-5.1-5-2.2-2.5-3.4-5-3.6-7.4 0-1.2 0.2-2.3 0.7-3.4 0.5-1.1 1.2-2.2 2.3-3.2 1-1 2.2-1.9 3.5-2.5 1.3-0.7 2.7-1.2 4.2-1.5 1.6-0.3 3.2-0.3 4.8-0.1 1.6 0.1 3.2 0.6 4.8 1.2 1.7 0.7 3.3 1.6 4.8 2.7 1.5 1.2 2.9 2.6 4.2 4.2 1.8 2.3 2.8 4.5 3 6.5 0.2 2-0.5 3.6-1.9 4.6-1.1 0.8-2.3 1.2-3.7 1.3-1.4 0-2.9-0.3-4.6-0.9-1.6-0.6-3.4-1.5-5.2-2.8-1.9-1.2-3.8-2.7-5.9-4.5 0 0-2.8-2.2-2.8-2.2-0.9 1-1.3 2-1.2 3 0.1 1 0.7 2.2 1.9 3.6 1 1.1 2 2.1 3.2 3.1 1.2 0.9 2.5 1.8 4 2.7zm8-13.1c-0.9-1-2-1.9-3.5-2.5-1.4-0.6-2.8-0.8-4.4-0.8-1.6 0.1-3.1 0.5-4.5 1.3 0 0 2.8 2.2 2.8 2.2 2.1 1.8 4 3 5.8 3.6 1.8 0.7 3.2 0.7 4.2-0.1 0.5-0.4 0.6-0.9 0.6-1.5-0.1-0.7-0.4-1.4-1-2.2z"/>
	<g id="Folder 1">
		<path id="Layer" class="s2" d="m306.6 249.6l-28.6 49.5h-57.1l-28.5-49.5 28.5-49.4h57.1z"/>
		<path id="Layer" class="s3" d="m306.6 150.8l-28.6 49.4h-57.1l-28.5-49.5 28.5-49.4h57.1z"/>
		<path id="Layer" class="s3" d="m391.9 200.2l-28.6 49.5h-57.1l-28.5-49.5 28.5-49.4h57.1z"/>
		<path id="Layer" class="s3" d="m391.9 299.1l-28.6 49.4h-57.1l-28.5-49.4 28.5-49.5h57.1z"/>
		<path id="Layer" class="s3" d="m306.6 348.6l-28.6 49.4h-57.1l-28.5-49.4 28.5-49.5h57.1z"/>
		<path id="Layer" class="s3" d="m221.6 299.1l-28.6 49.5h-57.1l-28.5-49.5 28.5-49.4h57.1z"/>
		<path id="Layer" class="s3" d="m221.6 200.2l-28.6 49.5h-57.1l-28.5-49.5 28.5-49.4h57.1z"/>
	</g>
</svg>